<mxfile host="65bd71144e">
    <diagram id="ODK6wR_N5Cge7k6LmodH" name="Page-1">
        <mxGraphModel dx="2060" dy="877" grid="1" gridSize="10" guides="1" tooltips="1" connect="1" arrows="1" fold="1" page="1" pageScale="1" pageWidth="827" pageHeight="1169" math="0" shadow="0">
            <root>
                <mxCell id="0"/>
                <mxCell id="1" parent="0"/>
                <mxCell id="108" value="" style="whiteSpace=wrap;html=1;" parent="1" vertex="1">
                    <mxGeometry x="70" y="200" width="400" height="530" as="geometry"/>
                </mxCell>
                <mxCell id="116" value="" style="whiteSpace=wrap;html=1;" parent="1" vertex="1">
                    <mxGeometry x="1130" y="490.52" width="369" height="329.48" as="geometry"/>
                </mxCell>
                <mxCell id="96" value="SocketClient" style="text;html=1;align=center;verticalAlign=middle;resizable=0;points=[];autosize=1;strokeColor=none;fillColor=none;" parent="1" vertex="1">
                    <mxGeometry x="1753.25" y="180" width="80" height="20" as="geometry"/>
                </mxCell>
                <mxCell id="92" value="`" style="whiteSpace=wrap;html=1;" parent="1" vertex="1">
                    <mxGeometry x="540" y="200" width="400" height="530" as="geometry"/>
                </mxCell>
                <mxCell id="67" value="" style="whiteSpace=wrap;html=1;" parent="1" vertex="1">
                    <mxGeometry x="1150" y="200" width="308.94" height="230" as="geometry"/>
                </mxCell>
                <mxCell id="3" value="" style="rounded=0;whiteSpace=wrap;html=1;" parent="1" vertex="1">
                    <mxGeometry x="314" y="40" width="200" height="100" as="geometry"/>
                </mxCell>
                <mxCell id="5" value="" style="edgeStyle=none;html=1;entryX=0;entryY=0.5;entryDx=0;entryDy=0;" parent="1" source="6" target="124" edge="1">
                    <mxGeometry relative="1" as="geometry">
                        <mxPoint x="640" y="245" as="targetPoint"/>
                        <Array as="points">
                            <mxPoint x="580" y="90"/>
                            <mxPoint x="580" y="245"/>
                        </Array>
                    </mxGeometry>
                </mxCell>
                <mxCell id="77" value="1" style="edgeLabel;html=1;align=center;verticalAlign=middle;resizable=0;points=[];" parent="5" vertex="1" connectable="0">
                    <mxGeometry x="-0.2124" y="-3" relative="1" as="geometry">
                        <mxPoint x="3" y="48" as="offset"/>
                    </mxGeometry>
                </mxCell>
                <mxCell id="6" value="Main.tsx&lt;br&gt;handleJoinRoom" style="rounded=0;whiteSpace=wrap;html=1;" parent="1" vertex="1">
                    <mxGeometry x="324" y="50" width="180.63" height="80" as="geometry"/>
                </mxCell>
                <mxCell id="7" value="" style="edgeStyle=none;html=1;exitX=1;exitY=0.5;exitDx=0;exitDy=0;" parent="1" source="124" target="11" edge="1">
                    <mxGeometry relative="1" as="geometry">
                        <mxPoint x="820" y="245" as="sourcePoint"/>
                    </mxGeometry>
                </mxCell>
                <mxCell id="78" value="2" style="edgeLabel;html=1;align=center;verticalAlign=middle;resizable=0;points=[];" parent="7" vertex="1" connectable="0">
                    <mxGeometry x="0.1525" y="-1" relative="1" as="geometry">
                        <mxPoint as="offset"/>
                    </mxGeometry>
                </mxCell>
                <mxCell id="69" style="edgeStyle=none;html=1;exitX=1;exitY=0.5;exitDx=0;exitDy=0;entryX=0;entryY=0.5;entryDx=0;entryDy=0;" parent="1" source="11" target="68" edge="1">
                    <mxGeometry relative="1" as="geometry">
                        <Array as="points">
                            <mxPoint x="1470" y="245"/>
                            <mxPoint x="1470" y="450"/>
                            <mxPoint x="1120" y="450"/>
                            <mxPoint x="1120" y="540"/>
                        </Array>
                        <mxPoint x="1120" y="540" as="targetPoint"/>
                    </mxGeometry>
                </mxCell>
                <mxCell id="79" value="3" style="edgeLabel;html=1;align=center;verticalAlign=middle;resizable=0;points=[];" parent="69" vertex="1" connectable="0">
                    <mxGeometry x="0.108" y="-1" relative="1" as="geometry">
                        <mxPoint y="-84" as="offset"/>
                    </mxGeometry>
                </mxCell>
                <mxCell id="97" value="3" style="edgeLabel;html=1;align=center;verticalAlign=middle;resizable=0;points=[];" parent="69" vertex="1" connectable="0">
                    <mxGeometry x="-0.069" y="-1" relative="1" as="geometry">
                        <mxPoint x="60" y="-149" as="offset"/>
                    </mxGeometry>
                </mxCell>
                <mxCell id="137" value="3" style="edgeLabel;html=1;align=center;verticalAlign=middle;resizable=0;points=[];" vertex="1" connectable="0" parent="69">
                    <mxGeometry x="-0.7698" relative="1" as="geometry">
                        <mxPoint as="offset"/>
                    </mxGeometry>
                </mxCell>
                <mxCell id="11" value="&lt;div style=&quot;text-align: left&quot;&gt;&lt;span&gt;socket.on('room-join', &lt;/span&gt;&lt;span style=&quot;text-align: left&quot;&gt;data =&amp;gt; {&lt;/span&gt;&lt;/div&gt;&lt;div style=&quot;text-align: left&quot;&gt;&lt;span&gt;&amp;nbsp; &amp;nbsp; SocketIO.joinRoomHandler(data, socket, sio)&lt;/span&gt;&lt;/div&gt;&lt;span&gt;&lt;div style=&quot;text-align: left&quot;&gt;&lt;span&gt;})&lt;/span&gt;&lt;/div&gt;&lt;/span&gt;" style="rounded=0;whiteSpace=wrap;html=1;" parent="1" vertex="1">
                    <mxGeometry x="1170" y="210" width="270" height="70" as="geometry"/>
                </mxCell>
                <mxCell id="106" style="edgeStyle=none;html=1;exitX=1;exitY=0.25;exitDx=0;exitDy=0;entryX=0.005;entryY=0.518;entryDx=0;entryDy=0;entryPerimeter=0;" parent="1" source="18" target="99" edge="1">
                    <mxGeometry relative="1" as="geometry">
                        <Array as="points">
                            <mxPoint x="2011" y="230"/>
                            <mxPoint x="2011" y="381"/>
                        </Array>
                    </mxGeometry>
                </mxCell>
                <mxCell id="114" value="6" style="edgeLabel;html=1;align=center;verticalAlign=middle;resizable=0;points=[];" parent="106" vertex="1" connectable="0">
                    <mxGeometry x="0.1463" y="-1" relative="1" as="geometry">
                        <mxPoint as="offset"/>
                    </mxGeometry>
                </mxCell>
                <mxCell id="118" style="edgeStyle=none;html=1;exitX=1;exitY=0.75;exitDx=0;exitDy=0;entryX=0;entryY=0.5;entryDx=0;entryDy=0;" parent="1" source="18" target="61" edge="1">
                    <mxGeometry relative="1" as="geometry">
                        <mxPoint x="1000" y="150" as="targetPoint"/>
                        <Array as="points">
                            <mxPoint x="2030" y="270"/>
                            <mxPoint x="2030" y="160"/>
                            <mxPoint x="1130" y="160"/>
                            <mxPoint x="1130" y="320"/>
                        </Array>
                    </mxGeometry>
                </mxCell>
                <mxCell id="119" value="7" style="edgeLabel;html=1;align=center;verticalAlign=middle;resizable=0;points=[];" parent="118" vertex="1" connectable="0">
                    <mxGeometry x="0.005" y="-2" relative="1" as="geometry">
                        <mxPoint as="offset"/>
                    </mxGeometry>
                </mxCell>
                <mxCell id="18" value="&lt;div style=&quot;text-align: left&quot;&gt;&lt;span&gt;socket.on('conn-prepare', data =&amp;gt; {&lt;/span&gt;&lt;/div&gt;&lt;div style=&quot;text-align: left&quot;&gt;&amp;nbsp; &amp;nbsp; WebRTCHandler.handlePeerConnection(connUserSocketId, false)&lt;/div&gt;&lt;div style=&quot;text-align: left&quot;&gt;&amp;nbsp; &amp;nbsp; socket.emit('conn-init', data)&lt;/div&gt;&lt;div style=&quot;text-align: left&quot;&gt;&lt;span&gt;})&lt;/span&gt;&lt;/div&gt;" style="whiteSpace=wrap;html=1;" parent="1" vertex="1">
                    <mxGeometry x="1600.75" y="210" width="390" height="80" as="geometry"/>
                </mxCell>
                <mxCell id="19" value="&lt;span style=&quot;text-align: left&quot;&gt;socket.on('room-update', data =&amp;gt; {&lt;/span&gt;&lt;br&gt;&lt;div style=&quot;text-align: left&quot;&gt;&lt;span&gt;&amp;nbsp; &amp;nbsp; setRoomParticipants&lt;/span&gt;&lt;/div&gt;&lt;div style=&quot;text-align: left&quot;&gt;&lt;span&gt;})&lt;/span&gt;&lt;/div&gt;" style="whiteSpace=wrap;html=1;" parent="1" vertex="1">
                    <mxGeometry x="1680.75" y="300" width="230" height="70" as="geometry"/>
                </mxCell>
                <mxCell id="20" value="SocketClient" style="text;html=1;align=center;verticalAlign=middle;resizable=0;points=[];autosize=1;strokeColor=none;fillColor=none;" parent="1" vertex="1">
                    <mxGeometry x="701.5" y="180" width="80" height="20" as="geometry"/>
                </mxCell>
                <mxCell id="115" style="edgeStyle=none;html=1;exitX=1;exitY=0.5;exitDx=0;exitDy=0;entryX=1.004;entryY=0.567;entryDx=0;entryDy=0;entryPerimeter=0;" parent="1" source="132" target="32" edge="1">
                    <mxGeometry relative="1" as="geometry">
                        <mxPoint x="1449.0000000000005" y="710.1250000000002" as="sourcePoint"/>
                        <Array as="points">
                            <mxPoint x="1509" y="390"/>
                            <mxPoint x="1509" y="704"/>
                        </Array>
                    </mxGeometry>
                </mxCell>
                <mxCell id="35" value="" style="edgeStyle=none;html=1;entryX=1;entryY=0.5;entryDx=0;entryDy=0;exitX=0;exitY=0.5;exitDx=0;exitDy=0;" parent="1" source="32" target="42" edge="1">
                    <mxGeometry relative="1" as="geometry">
                        <mxPoint x="1113" y="810" as="targetPoint"/>
                        <Array as="points">
                            <mxPoint x="1080" y="700"/>
                            <mxPoint x="1080" y="670"/>
                        </Array>
                    </mxGeometry>
                </mxCell>
                <mxCell id="32" value="&lt;div style=&quot;text-align: left&quot;&gt;&lt;span&gt;signalingHandler:&lt;/span&gt;&lt;/div&gt;&amp;nbsp; &amp;nbsp; sio.to(connUserSocketId).emit('conn-signal', signalingData)" style="whiteSpace=wrap;html=1;" parent="1" vertex="1">
                    <mxGeometry x="1139.5" y="670.52" width="350" height="59.48" as="geometry"/>
                </mxCell>
                <mxCell id="42" value="SocketClient.ts&lt;br&gt;&lt;div style=&quot;text-align: left&quot;&gt;&lt;span&gt;socket.on('conn-signal', data =&amp;gt; {&lt;br&gt;&amp;nbsp; &amp;nbsp; WebRTCHandler.handleSignalingData(data)&lt;/span&gt;&lt;/div&gt;&lt;div style=&quot;text-align: left&quot;&gt;&lt;span&gt;})&lt;/span&gt;&lt;br&gt;&lt;/div&gt;" style="whiteSpace=wrap;html=1;" parent="1" vertex="1">
                    <mxGeometry x="586.5" y="630" width="308" height="80" as="geometry"/>
                </mxCell>
                <mxCell id="46" value="Browser" style="text;html=1;align=center;verticalAlign=middle;resizable=0;points=[];autosize=1;strokeColor=none;fillColor=none;" parent="1" vertex="1">
                    <mxGeometry x="384.32" y="20" width="60" height="20" as="geometry"/>
                </mxCell>
                <mxCell id="47" value="app" style="text;html=1;align=center;verticalAlign=middle;resizable=0;points=[];autosize=1;strokeColor=none;fillColor=none;" parent="1" vertex="1">
                    <mxGeometry x="1281.8200000000002" y="180" width="40" height="20" as="geometry"/>
                </mxCell>
                <mxCell id="49" value="&lt;span style=&quot;text-align: left&quot;&gt;socket.emit('conn-signal', data)&lt;/span&gt;" style="whiteSpace=wrap;html=1;" parent="1" vertex="1">
                    <mxGeometry x="635.5" y="574.5" width="210" height="40" as="geometry"/>
                </mxCell>
                <mxCell id="51" value="Server" style="text;html=1;align=center;verticalAlign=middle;resizable=0;points=[];autosize=1;strokeColor=none;fillColor=none;" parent="1" vertex="1">
                    <mxGeometry x="1280.21" y="90" width="50" height="20" as="geometry"/>
                </mxCell>
                <mxCell id="71" style="edgeStyle=none;html=1;exitX=1;exitY=0.5;exitDx=0;exitDy=0;entryX=0;entryY=0.5;entryDx=0;entryDy=0;" parent="1" source="61" target="70" edge="1">
                    <mxGeometry relative="1" as="geometry">
                        <Array as="points">
                            <mxPoint x="1490" y="320"/>
                            <mxPoint x="1490" y="470"/>
                            <mxPoint x="1100" y="470"/>
                            <mxPoint x="1100" y="621"/>
                        </Array>
                    </mxGeometry>
                </mxCell>
                <mxCell id="127" value="9" style="edgeLabel;html=1;align=center;verticalAlign=middle;resizable=0;points=[];" parent="71" vertex="1" connectable="0">
                    <mxGeometry x="0.2273" y="-1" relative="1" as="geometry">
                        <mxPoint x="30" y="2" as="offset"/>
                    </mxGeometry>
                </mxCell>
                <mxCell id="61" value="&lt;div style=&quot;text-align: left&quot;&gt;&lt;span&gt;socket.on('conn-init', data =&amp;gt; {&lt;/span&gt;&lt;/div&gt;&lt;span&gt;&lt;div style=&quot;text-align: left&quot;&gt;&lt;span&gt;&amp;nbsp; &amp;nbsp; SocketIO.initConnectionHandler(data, socket, sio)&lt;/span&gt;&lt;/div&gt;&lt;div style=&quot;text-align: left&quot;&gt;&lt;span&gt;})&lt;/span&gt;&lt;/div&gt;&lt;/span&gt;" style="whiteSpace=wrap;html=1;align=center;" parent="1" vertex="1">
                    <mxGeometry x="1158.98" y="290" width="291.02" height="60" as="geometry"/>
                </mxCell>
                <mxCell id="13" value="SocketServer" style="text;html=1;align=center;verticalAlign=middle;resizable=0;points=[];autosize=1;strokeColor=none;fillColor=none;" parent="1" vertex="1">
                    <mxGeometry x="1266.89" y="470.52" width="90" height="20" as="geometry"/>
                </mxCell>
                <mxCell id="89" style="edgeStyle=none;html=1;exitX=1;exitY=0.5;exitDx=0;exitDy=0;entryX=0;entryY=0.5;entryDx=0;entryDy=0;" parent="1" source="68" target="18" edge="1">
                    <mxGeometry relative="1" as="geometry">
                        <mxPoint x="1572.8900000000006" y="260.5" as="targetPoint"/>
                        <Array as="points">
                            <mxPoint x="1530" y="540"/>
                            <mxPoint x="1530" y="250"/>
                        </Array>
                    </mxGeometry>
                </mxCell>
                <mxCell id="94" value="4" style="edgeLabel;html=1;align=center;verticalAlign=middle;resizable=0;points=[];" parent="89" vertex="1" connectable="0">
                    <mxGeometry x="0.0744" y="1" relative="1" as="geometry">
                        <mxPoint y="-98" as="offset"/>
                    </mxGeometry>
                </mxCell>
                <mxCell id="93" style="edgeStyle=none;html=1;exitX=1;exitY=0.75;exitDx=0;exitDy=0;entryX=0;entryY=0.5;entryDx=0;entryDy=0;" parent="1" source="68" target="19" edge="1">
                    <mxGeometry relative="1" as="geometry">
                        <Array as="points">
                            <mxPoint x="1560" y="560"/>
                            <mxPoint x="1560" y="335"/>
                        </Array>
                    </mxGeometry>
                </mxCell>
                <mxCell id="112" value="5" style="edgeLabel;html=1;align=center;verticalAlign=middle;resizable=0;points=[];" parent="93" vertex="1" connectable="0">
                    <mxGeometry x="0.0648" y="1" relative="1" as="geometry">
                        <mxPoint as="offset"/>
                    </mxGeometry>
                </mxCell>
                <mxCell id="68" value="SocketServer.ts&lt;br&gt;&lt;div style=&quot;text-align: left&quot;&gt;&lt;span&gt;joinRoomHandler:&lt;/span&gt;&lt;/div&gt;&lt;div style=&quot;text-align: left&quot;&gt;&lt;/div&gt;&lt;div style=&quot;text-align: left&quot;&gt;&lt;span&gt;&amp;nbsp; &amp;nbsp;&amp;nbsp;&lt;/span&gt;sio.to(connUserSocketId).emit&lt;span&gt;('conn-prepare', data)&lt;/span&gt;&lt;/div&gt;&lt;div style=&quot;text-align: left&quot;&gt;&lt;span&gt;&amp;nbsp; &amp;nbsp; socket.emit('room-update', data)&lt;/span&gt;&lt;/div&gt;" style="whiteSpace=wrap;html=1;" parent="1" vertex="1">
                    <mxGeometry x="1140" y="500.52" width="350" height="79.48" as="geometry"/>
                </mxCell>
                <mxCell id="73" style="edgeStyle=none;html=1;exitX=1;exitY=0.5;exitDx=0;exitDy=0;entryX=0;entryY=0.5;entryDx=0;entryDy=0;" parent="1" source="70" target="72" edge="1">
                    <mxGeometry relative="1" as="geometry">
                        <Array as="points">
                            <mxPoint x="1480" y="621"/>
                            <mxPoint x="1480" y="660"/>
                            <mxPoint x="1080" y="660"/>
                            <mxPoint x="1080" y="390"/>
                            <mxPoint x="530" y="390"/>
                            <mxPoint x="530" y="325"/>
                        </Array>
                    </mxGeometry>
                </mxCell>
                <mxCell id="128" value="10" style="edgeLabel;html=1;align=center;verticalAlign=middle;resizable=0;points=[];" parent="73" vertex="1" connectable="0">
                    <mxGeometry x="0.3143" y="2" relative="1" as="geometry">
                        <mxPoint as="offset"/>
                    </mxGeometry>
                </mxCell>
                <mxCell id="70" value="SocketServer.ts&lt;br&gt;&lt;div style=&quot;text-align: left&quot;&gt;&lt;span&gt;initConnectionHandler:&lt;/span&gt;&lt;/div&gt;&lt;div style=&quot;text-align: left&quot;&gt;&lt;span&gt;&amp;nbsp; &amp;nbsp; sio.to(connUserSocketId).emit('conn-init', initData)&lt;/span&gt;&lt;/div&gt;" style="whiteSpace=wrap;html=1;" parent="1" vertex="1">
                    <mxGeometry x="1167.91" y="592.64" width="291.03" height="57.36" as="geometry"/>
                </mxCell>
                <mxCell id="122" style="edgeStyle=none;html=1;entryX=0;entryY=0.5;entryDx=0;entryDy=0;exitX=1;exitY=0.5;exitDx=0;exitDy=0;" parent="1" source="72" target="136" edge="1">
                    <mxGeometry relative="1" as="geometry">
                        <mxPoint x="80" y="400" as="targetPoint"/>
                        <mxPoint x="930" y="430" as="sourcePoint"/>
                        <Array as="points">
                            <mxPoint x="990" y="325"/>
                            <mxPoint x="990" y="160"/>
                            <mxPoint x="50" y="160"/>
                            <mxPoint x="50" y="375"/>
                        </Array>
                    </mxGeometry>
                </mxCell>
                <mxCell id="123" value="11" style="edgeLabel;html=1;align=center;verticalAlign=middle;resizable=0;points=[];" parent="122" vertex="1" connectable="0">
                    <mxGeometry x="0.1484" y="4" relative="1" as="geometry">
                        <mxPoint x="-10" y="-4" as="offset"/>
                    </mxGeometry>
                </mxCell>
                <mxCell id="72" value="&lt;div style=&quot;text-align: left&quot;&gt;&lt;span&gt;socket.on('conn-init', data =&amp;gt; {&lt;/span&gt;&lt;/div&gt;&lt;div style=&quot;text-align: left&quot;&gt;&lt;span&gt;&amp;nbsp; &amp;nbsp; WebRTCHandler.handlePeerconnection(connUserSocketId, true)&lt;/span&gt;&lt;/div&gt;&lt;div style=&quot;text-align: left&quot;&gt;&lt;span&gt;})&lt;/span&gt;&lt;/div&gt;" style="whiteSpace=wrap;html=1;" parent="1" vertex="1">
                    <mxGeometry x="548" y="290" width="385" height="70" as="geometry"/>
                </mxCell>
                <mxCell id="88" value="Initiator" style="text;html=1;align=center;verticalAlign=middle;resizable=0;points=[];autosize=1;strokeColor=none;fillColor=none;" parent="1" vertex="1">
                    <mxGeometry x="648" y="90" width="50" height="20" as="geometry"/>
                </mxCell>
                <mxCell id="90" value="Receiver" style="text;html=1;align=center;verticalAlign=middle;resizable=0;points=[];autosize=1;strokeColor=none;fillColor=none;" parent="1" vertex="1">
                    <mxGeometry x="2010.75" y="90" width="60" height="20" as="geometry"/>
                </mxCell>
                <mxCell id="125" style="edgeStyle=none;html=1;exitX=1;exitY=0.25;exitDx=0;exitDy=0;entryX=0;entryY=0.5;entryDx=0;entryDy=0;" parent="1" source="99" target="117" edge="1">
                    <mxGeometry relative="1" as="geometry">
                        <mxPoint x="2452" y="292.5" as="sourcePoint"/>
                        <mxPoint x="1680.75" y="410.52" as="targetPoint"/>
                        <Array as="points">
                            <mxPoint x="2471" y="293"/>
                            <mxPoint x="2471" y="140"/>
                            <mxPoint x="1581" y="140"/>
                            <mxPoint x="1581" y="411"/>
                        </Array>
                    </mxGeometry>
                </mxCell>
                <mxCell id="126" value="8" style="edgeLabel;html=1;align=center;verticalAlign=middle;resizable=0;points=[];" parent="125" vertex="1" connectable="0">
                    <mxGeometry x="-0.1694" y="1" relative="1" as="geometry">
                        <mxPoint x="-38" y="-1" as="offset"/>
                    </mxGeometry>
                </mxCell>
                <mxCell id="99" value="&lt;div style=&quot;text-align: left&quot;&gt;&lt;span&gt;handlePeerConnection:&lt;/span&gt;&lt;/div&gt;&lt;div style=&quot;text-align: left&quot;&gt;&lt;span&gt;&amp;nbsp; &amp;nbsp; WebRTCHandler.peers[connSocketId] = new SimplePeer({&lt;/span&gt;&lt;/div&gt;&lt;div style=&quot;text-align: left&quot;&gt;&lt;span&gt;&lt;span style=&quot;white-space: pre&quot;&gt;&#9;&lt;/span&gt;initiator: false, ...option&lt;br&gt;&lt;/span&gt;&lt;/div&gt;&lt;div style=&quot;text-align: left&quot;&gt;&lt;span&gt;&amp;nbsp; &amp;nbsp; }&lt;/span&gt;&lt;span&gt;)&lt;/span&gt;&lt;/div&gt;&lt;div style=&quot;text-align: left&quot;&gt;&lt;span&gt;&amp;nbsp; &amp;nbsp;&amp;nbsp;&lt;/span&gt;&lt;span&gt;WebRTCHandler.peers[connSocketId].on('signal', data =&amp;gt; {&lt;/span&gt;&lt;/div&gt;&lt;div style=&quot;text-align: left&quot;&gt;&lt;div&gt;&lt;span style=&quot;white-space: pre&quot;&gt;&#9;&lt;/span&gt;SocketClient.sendSignalData(signalData)&lt;/div&gt;&lt;div&gt;&lt;span&gt;&#9;&lt;/span&gt;&lt;span&gt;&#9;&lt;/span&gt;&amp;nbsp;&lt;span&gt;&#9;&lt;/span&gt;&amp;nbsp;&lt;span&gt;&#9;&lt;/span&gt;&amp;nbsp;&lt;span style=&quot;white-space: pre&quot;&gt;&#9;&lt;/span&gt;setWebRTCStatus('signaling')&lt;br&gt;&lt;/div&gt;&lt;div&gt;&amp;nbsp; &amp;nbsp; })&lt;/div&gt;&lt;div&gt;&amp;nbsp; &amp;nbsp;&amp;nbsp;&lt;span&gt;WebRTCHandler.peers[connSocketId].on('data', data =&amp;gt; {&lt;/span&gt;&lt;/div&gt;&lt;div&gt;&lt;span&gt;&amp;nbsp;&amp;nbsp;&lt;span&gt;&amp;nbsp; &amp;nbsp; &amp;nbsp; &amp;nbsp;&lt;/span&gt;setWebRTCStatus('dataing')&lt;/span&gt;&lt;/div&gt;&lt;/div&gt;&lt;div style=&quot;text-align: left&quot;&gt;&lt;div&gt;&lt;div&gt;&amp;nbsp; &amp;nbsp; })&lt;/div&gt;&lt;/div&gt;&lt;div&gt;&amp;nbsp; &amp;nbsp;&amp;nbsp;&lt;span&gt;WebRTCHandler.peers[connSocketId].on('connect', data =&amp;gt; {&lt;/span&gt;&lt;/div&gt;&lt;div&gt;&amp;nbsp;&lt;span&gt;&#9;&lt;/span&gt;&amp;nbsp;&lt;span style=&quot;white-space: pre&quot;&gt;&#9;&lt;/span&gt;WebRTCHandler.peers[connSocketId].send('random msg')&amp;nbsp;&lt;/div&gt;&lt;div&gt;&lt;span&gt;&lt;span style=&quot;white-space: pre&quot;&gt;&#9;&lt;/span&gt;setWebRTCStatus('connected')&lt;/span&gt;&lt;div&gt;&amp;nbsp; &amp;nbsp; })&lt;/div&gt;&lt;/div&gt;&lt;div&gt;&amp;nbsp; &amp;nbsp;&amp;nbsp;&lt;span&gt;WebRTCHandler.peers[connSocketId].on('stream', data =&amp;gt; {&lt;/span&gt;&lt;/div&gt;&lt;div&gt;&lt;span style=&quot;white-space: pre&quot;&gt;&#9;&lt;/span&gt;SocketClient.sendSignalData(signalData)&lt;/div&gt;&lt;/div&gt;&lt;div style=&quot;text-align: left&quot;&gt;&lt;div&gt;&lt;div&gt;&amp;nbsp; &amp;nbsp; })&lt;/div&gt;&lt;/div&gt;&lt;div&gt;&amp;nbsp; &amp;nbsp;&amp;nbsp;&lt;span&gt;WebRTCHandler.peers[connSocketId].on('close', data =&amp;gt; {&lt;/span&gt;&lt;/div&gt;&lt;div&gt;&lt;span&gt;&lt;span style=&quot;white-space: pre&quot;&gt;&#9;&lt;/span&gt;delete WebRTCHandler.peers[connSocketId]&lt;/span&gt;&lt;/div&gt;&lt;div&gt;&lt;span style=&quot;white-space: pre&quot;&gt;&#9;&lt;/span&gt;setWebRTCStatus('disconnected')&lt;br&gt;&lt;/div&gt;&lt;div&gt;&lt;span&gt;&amp;nbsp; &amp;nbsp; })&lt;/span&gt;&lt;/div&gt;&lt;/div&gt;" style="whiteSpace=wrap;html=1;" parent="1" vertex="1">
                    <mxGeometry x="2072" y="210" width="380" height="330" as="geometry"/>
                </mxCell>
                <mxCell id="100" value="webRTCHandler.ts&lt;br&gt;WebRTCHandler.peers[connUserSocketId].signal(signal)" style="whiteSpace=wrap;html=1;" parent="1" vertex="1">
                    <mxGeometry x="2091" y="600" width="340" height="60" as="geometry"/>
                </mxCell>
                <mxCell id="101" value="WebRTCHandler" style="text;html=1;align=center;verticalAlign=middle;resizable=0;points=[];autosize=1;strokeColor=none;fillColor=none;" parent="1" vertex="1">
                    <mxGeometry x="2207" y="180" width="110" height="20" as="geometry"/>
                </mxCell>
                <mxCell id="130" style="edgeStyle=none;html=1;exitX=1;exitY=0.5;exitDx=0;exitDy=0;entryX=0;entryY=0.5;entryDx=0;entryDy=0;" parent="1" source="136" target="129" edge="1">
                    <mxGeometry relative="1" as="geometry">
                        <mxPoint x="460" y="400" as="sourcePoint"/>
                        <Array as="points">
                            <mxPoint x="500" y="375"/>
                            <mxPoint x="500" y="441"/>
                        </Array>
                    </mxGeometry>
                </mxCell>
                <mxCell id="131" value="12" style="edgeLabel;html=1;align=center;verticalAlign=middle;resizable=0;points=[];" parent="130" vertex="1" connectable="0">
                    <mxGeometry x="-0.3813" relative="1" as="geometry">
                        <mxPoint x="-1" as="offset"/>
                    </mxGeometry>
                </mxCell>
                <mxCell id="110" value="webRTCHandler.ts&lt;br&gt;WebRTCHandler.peers[connUserSocketId].signal(signal)" style="whiteSpace=wrap;html=1;" parent="1" vertex="1">
                    <mxGeometry x="109" y="650" width="333" height="60" as="geometry"/>
                </mxCell>
                <mxCell id="111" value="WebRTCHandler" style="text;html=1;align=center;verticalAlign=middle;resizable=0;points=[];autosize=1;strokeColor=none;fillColor=none;" parent="1" vertex="1">
                    <mxGeometry x="215" y="180" width="110" height="20" as="geometry"/>
                </mxCell>
                <mxCell id="133" style="edgeStyle=none;html=1;exitX=1;exitY=0.5;exitDx=0;exitDy=0;entryX=0;entryY=0.5;entryDx=0;entryDy=0;" parent="1" source="117" target="132" edge="1">
                    <mxGeometry relative="1" as="geometry">
                        <mxPoint x="975.599853515625" y="120" as="targetPoint"/>
                        <Array as="points">
                            <mxPoint x="2050" y="411"/>
                            <mxPoint x="2050" y="120"/>
                            <mxPoint x="1110" y="120"/>
                            <mxPoint x="1110" y="390"/>
                        </Array>
                    </mxGeometry>
                </mxCell>
                <mxCell id="135" value="9" style="edgeLabel;html=1;align=center;verticalAlign=middle;resizable=0;points=[];" parent="133" vertex="1" connectable="0">
                    <mxGeometry x="0.0331" y="-2" relative="1" as="geometry">
                        <mxPoint as="offset"/>
                    </mxGeometry>
                </mxCell>
                <mxCell id="117" value="&lt;div style=&quot;text-align: left&quot;&gt;&lt;span&gt;sendSignalData:&lt;/span&gt;&lt;br&gt;&lt;/div&gt;&lt;div style=&quot;text-align: left&quot;&gt;&lt;span&gt;&amp;nbsp; &amp;nbsp; socket.emit('conn-signal', data)&lt;/span&gt;&lt;/div&gt;" style="whiteSpace=wrap;html=1;" parent="1" vertex="1">
                    <mxGeometry x="1680.75" y="380.52" width="230" height="60" as="geometry"/>
                </mxCell>
                <mxCell id="124" value="&lt;span&gt;handleJoinRoom:&lt;/span&gt;&lt;br&gt;&lt;span&gt;&amp;nbsp; &amp;nbsp; socket.emit('room-join', emitData)&lt;/span&gt;&lt;br&gt;&lt;span&gt;&amp;nbsp; &amp;nbsp; setRoomStatus('existed')&lt;/span&gt;" style="whiteSpace=wrap;html=1;align=left;" parent="1" vertex="1">
                    <mxGeometry x="651.5" y="215" width="208.5" height="60" as="geometry"/>
                </mxCell>
                <mxCell id="129" value="&lt;div style=&quot;text-align: left&quot;&gt;&lt;span&gt;sendSignalData:&lt;/span&gt;&lt;br&gt;&lt;/div&gt;&lt;div style=&quot;text-align: left&quot;&gt;&lt;span&gt;&amp;nbsp; &amp;nbsp; socket.emit('conn-signal', data)&lt;/span&gt;&lt;/div&gt;" style="whiteSpace=wrap;html=1;" parent="1" vertex="1">
                    <mxGeometry x="626.5" y="410.52" width="230" height="60" as="geometry"/>
                </mxCell>
                <mxCell id="132" value="&lt;div style=&quot;text-align: left&quot;&gt;&lt;span&gt;socket.on('conn-signal ', data =&amp;gt; {&lt;/span&gt;&lt;/div&gt;&lt;span&gt;&lt;div style=&quot;text-align: left&quot;&gt;&lt;span&gt;&amp;nbsp; &amp;nbsp; SocketIO.signalingDataHandler(data, socket, sio)&lt;/span&gt;&lt;/div&gt;&lt;div style=&quot;text-align: left&quot;&gt;&lt;span&gt;})&lt;/span&gt;&lt;/div&gt;&lt;/span&gt;" style="whiteSpace=wrap;html=1;align=center;" parent="1" vertex="1">
                    <mxGeometry x="1159.7" y="360" width="291.02" height="60" as="geometry"/>
                </mxCell>
                <mxCell id="136" value="&lt;div style=&quot;text-align: left&quot;&gt;&lt;span&gt;handlePeerConnection:&lt;/span&gt;&lt;/div&gt;&lt;div style=&quot;text-align: left&quot;&gt;&lt;span&gt;&amp;nbsp; &amp;nbsp; WebRTCHandler.peers[connSocketId] = new SimplePeer({&lt;/span&gt;&lt;/div&gt;&lt;div style=&quot;text-align: left&quot;&gt;&lt;span&gt;&lt;span style=&quot;white-space: pre&quot;&gt;&#9;&lt;/span&gt;initiator: false, ...option&lt;br&gt;&lt;/span&gt;&lt;/div&gt;&lt;div style=&quot;text-align: left&quot;&gt;&lt;span&gt;&amp;nbsp; &amp;nbsp; }&lt;/span&gt;&lt;span&gt;)&lt;/span&gt;&lt;/div&gt;&lt;div style=&quot;text-align: left&quot;&gt;&lt;span&gt;&amp;nbsp; &amp;nbsp;&amp;nbsp;&lt;/span&gt;&lt;span&gt;WebRTCHandler.peers[connSocketId].on('signal', data =&amp;gt; {&lt;/span&gt;&lt;/div&gt;&lt;div style=&quot;text-align: left&quot;&gt;&lt;div&gt;&lt;span style=&quot;white-space: pre&quot;&gt;&#9;&lt;/span&gt;SocketClient.sendSignalData(signalData)&lt;/div&gt;&lt;div&gt;&lt;span&gt;&#9;&lt;/span&gt;&lt;span&gt;&#9;&lt;/span&gt;&amp;nbsp;&lt;span&gt;&#9;&lt;/span&gt;&amp;nbsp;&lt;span&gt;&#9;&lt;/span&gt;&amp;nbsp;&lt;span style=&quot;white-space: pre&quot;&gt;&#9;&lt;/span&gt;setWebRTCStatus('signaling')&lt;br&gt;&lt;/div&gt;&lt;div&gt;&amp;nbsp; &amp;nbsp; })&lt;/div&gt;&lt;div&gt;&amp;nbsp; &amp;nbsp;&amp;nbsp;&lt;span&gt;WebRTCHandler.peers[connSocketId].on('data', data =&amp;gt; {&lt;/span&gt;&lt;/div&gt;&lt;div&gt;&lt;span&gt;&amp;nbsp;&amp;nbsp;&lt;span&gt;&amp;nbsp; &amp;nbsp; &amp;nbsp; &amp;nbsp;&lt;/span&gt;setWebRTCStatus('dataing')&lt;/span&gt;&lt;/div&gt;&lt;/div&gt;&lt;div style=&quot;text-align: left&quot;&gt;&lt;div&gt;&lt;div&gt;&amp;nbsp; &amp;nbsp; })&lt;/div&gt;&lt;/div&gt;&lt;div&gt;&amp;nbsp; &amp;nbsp;&amp;nbsp;&lt;span&gt;WebRTCHandler.peers[connSocketId].on('connect', data =&amp;gt; {&lt;/span&gt;&lt;/div&gt;&lt;div&gt;&amp;nbsp;&lt;span&gt;&#9;&lt;/span&gt;&amp;nbsp;&lt;span style=&quot;white-space: pre&quot;&gt;&#9;&lt;/span&gt;WebRTCHandler.peers[connSocketId].send('random msg')&amp;nbsp;&lt;/div&gt;&lt;div&gt;&lt;span&gt;&lt;span style=&quot;white-space: pre&quot;&gt;&#9;&lt;/span&gt;setWebRTCStatus('connected')&lt;/span&gt;&lt;div&gt;&amp;nbsp; &amp;nbsp; })&lt;/div&gt;&lt;/div&gt;&lt;div&gt;&amp;nbsp; &amp;nbsp;&amp;nbsp;&lt;span&gt;WebRTCHandler.peers[connSocketId].on('stream', data =&amp;gt; {&lt;/span&gt;&lt;/div&gt;&lt;div&gt;&lt;span style=&quot;white-space: pre&quot;&gt;&#9;&lt;/span&gt;SocketClient.sendSignalData(signalData)&lt;/div&gt;&lt;/div&gt;&lt;div style=&quot;text-align: left&quot;&gt;&lt;div&gt;&lt;div&gt;&amp;nbsp; &amp;nbsp; })&lt;/div&gt;&lt;/div&gt;&lt;div&gt;&amp;nbsp; &amp;nbsp;&amp;nbsp;&lt;span&gt;WebRTCHandler.peers[connSocketId].on('close', data =&amp;gt; {&lt;/span&gt;&lt;/div&gt;&lt;div&gt;&lt;span&gt;&lt;span style=&quot;white-space: pre&quot;&gt;&#9;&lt;/span&gt;delete WebRTCHandler.peers[connSocketId]&lt;/span&gt;&lt;/div&gt;&lt;div&gt;&lt;span style=&quot;white-space: pre&quot;&gt;&#9;&lt;/span&gt;setWebRTCStatus('disconnected')&lt;br&gt;&lt;/div&gt;&lt;div&gt;&lt;span&gt;&amp;nbsp; &amp;nbsp; })&lt;/span&gt;&lt;/div&gt;&lt;/div&gt;" style="whiteSpace=wrap;html=1;" parent="1" vertex="1">
                    <mxGeometry x="80" y="210" width="380" height="330" as="geometry"/>
                </mxCell>
            </root>
        </mxGraphModel>
    </diagram>
</mxfile>